# xmcd CD database file
#
# Track frame offsets:
#	151
#	47325
#	67612
#	102589
#	141215
#	174208
#	206611
#	243364
#	276857
#	315095
#
# Disc length: 4424 seconds
#
# Revision: 1
# Processed by: cddbd v1.5.2PL0 Copyright (c) Steve Scherf et al.
# Submitted via: CDex 1.50beta9
#
DISCID=7c11460a
DTITLE=Templegarden's - Pornografia
DYEAR=1999
DGENRE=Dark Ambient
TTITLE0=Womb
TTITLE1=Mind, Body...Separation Exit
TTITLE2=Cold
TTITLE3=She's In A Distance
TTITLE4=But Your God Only Sees What You Say It Sees
TTITLE5=Mortal
TTITLE6=Winterearth
TTITLE7=Adjoining The Answer-Machine
TTITLE8=Restriction Forces Ending
TTITLE9=Untitled
EXTD=YEAR: 1999
EXTT0=
EXTT1=
EXTT2=
EXTT3=
EXTT4=
EXTT5=
EXTT6=
EXTT7=
EXTT8=
EXTT9=
PLAYORDER=
